<svg id="svglogo" version="1.1" width="189.472" height="105.972" xmlns="http://www.w3.org/2000/svg">
   <style id="style2">
      @media (prefers-color-scheme:dark) {
         #rectborder {
            fill: #ffffff;
            stroke: #ffa800;
            stroke-width: 2%
         }

         #logotext {
            fill: #ffa800
         }
      }
   </style>
   <defs id="defs15">
      <filter id="MyFilter" filterUnits="objectBoundingBox" x="-.024" y="-2.648" width="1.048" height="6.296">
         <feGaussianBlur in="SourceAlpha" stdDeviation=".5" result="blur" id="feGaussianBlur4" />
         <feSpecularLighting in="blur" surfaceScale="5" specularConstant=".5" specularExponent="10" result="specOut"
            lighting-color="#ffffff" id="feSpecularLighting8">
            <fePointLight x="-5000" y="-10000" z="0" id="fePointLight6" />
         </feSpecularLighting>
         <feComposite in="specOut" in2="SourceAlpha" operator="in" result="specOut2" id="feComposite10" />
         <feComposite in="SourceGraphic" in2="specOut2" operator="arithmetic" k1="0" k2="1" k3="1" k4="0"
            result="litPaint" id="feComposite12" />
      </filter>
   </defs>
   <path id="rectborder" style="fill:#ffffff;fill-opacity:.5;stroke:#ffa800;stroke-width:5.9922;stroke-linejoin:round"
      d="M13.54 2.996h162.391c5.842 0 10.545 4.46 10.545 9.998v79.984c0 5.539-4.703 9.998-10.545 9.998H13.541c-5.842 0-10.545-4.46-10.545-9.998V12.994c0-5.539 4.703-9.998 10.545-9.998z" />
   <g aria-label="SMR" id="logotext" style="fill:#01487e;filter:url(#MyFilter)" class="heavy">
      <path
         d="M57.97 60.705q0 8.593-7.304 13.984Q43.4 80.041 30.9 80.041q-7.227 0-12.617-1.25-5.352-1.29-10.04-3.243V61.603h1.641q4.649 3.711 10.391 5.703 5.781 1.992 11.094 1.992 1.367 0 3.594-.234 2.226-.234 3.632-.781 1.72-.703 2.813-1.758Q42.54 65.47 42.54 63.4q0-1.914-1.641-3.281-1.602-1.406-4.727-2.149-3.28-.78-6.953-1.445-3.632-.703-6.836-1.758-7.343-2.383-10.586-6.445-3.203-4.102-3.203-10.156 0-8.125 7.266-13.243 7.305-5.156 18.75-5.156 5.742 0 11.328 1.133 5.625 1.094 9.727 2.773v13.399h-1.602q-3.516-2.813-8.633-4.688-5.078-1.914-10.39-1.914-1.875 0-3.75.274-1.836.234-3.555.937-1.523.586-2.617 1.797-1.094 1.172-1.094 2.695 0 2.305 1.758 3.555 1.758 1.211 6.64 2.227 3.204.664 6.133 1.289 2.969.625 6.367 1.719 6.68 2.187 9.844 5.976 3.203 3.75 3.203 9.766z"
         fill="#01487e" filter="url(#MyFilter)" />
      <path
         d="M119.72 78.986h-14.922V40.04l-10.78 25.273H83.665L72.884 40.041v38.945h-14.14V20.822h17.422l13.086 29.18 13.046-29.18h17.422z"
         fill="#01487e" filter="url(#MyFilter)" />
      <path
         d="M157.681 38.634q0-2.187-.898-3.75-.899-1.562-3.086-2.46-1.524-.626-3.555-.743-2.031-.156-4.726-.156h-5.43v15.664h4.61q3.593 0 6.015-.351 2.422-.352 4.062-1.602 1.563-1.211 2.266-2.656.742-1.485.742-3.946zm23.399 40.352h-18.32L146.9 57.658h-6.914v21.328h-14.922V20.822h25.156q5.157 0 8.868.586 3.71.586 6.953 2.539 3.28 1.953 5.195 5.078 1.953 3.086 1.953 7.773 0 6.446-3.008 10.508-2.969 4.063-8.515 6.758z"
         fill="#01487e" filter="url(#MyFilter)" />
   </g>
</svg>